inDegrees=yes
name=ik_l_comf_01-000_00_orientations
DataType=double
version=3
OpenSimVersion=4.5
endheader
time	pelvis_tilt	pelvis_list	pelvis_rotation	pelvis_tx	pelvis_ty	pelvis_tz	hip_flexion_r	hip_adduction_r	hip_rotation_r	knee_angle_r	knee_angle_r_beta	ankle_angle_r	subtalar_angle_r	mtp_angle_r	hip_flexion_l	hip_adduction_l	hip_rotation_l	knee_angle_l	knee_angle_l_beta	ankle_angle_l	subtalar_angle_l	mtp_angle_l	lumbar_extension	lumbar_bending	lumbar_rotation	arm_flex_r	arm_add_r	arm_rot_r	elbow_flex_r	pro_sup_r	wrist_flex_r	wrist_dev_r	arm_flex_l	arm_add_l	arm_rot_l	elbow_flex_l	pro_sup_l	wrist_flex_l	wrist_dev_l
0	42.3226589693717	-89.99489822185801	-47.6758714866918	0	0.9399999999999999	0	0.3048730407882521	-0.007146102043813912	-0.1006394328299608	0.5927442138017963	0.01034533815298656	0.3141811614776174	0	0	0.318412712477902	0.0001340752552114032	-0.1005000808849434	0.6011716326757374	0.01049242435978155	0.3211335383370398	0	0	0	0	0	0	-2.142575228766103	0	26.80050348450616	24.94541622169018	0	0	0	-2.142575228766103	0	26.80050348450616	24.94541622169018	0	0
0.025	42.10441007048821	-90.0119670607112	-47.90838057909468	0	0.9399999999999999	0	0.2928915729985473	0.05168565047080557	-0.04743507204631846	0.485808281595872	0.008478954047303739	0.09419573481169705	0	0	0.348797141689936	-0.09227525379708472	-0.1408619028314117	0.5966368648033534	0.01041327772959479	0.2583745883486218	0	0	0	0	0	0	-2.585309532489753	0	31.04518512250472	28.3064555206832	0	0	0	-2.585309532489753	0	31.04518512250472	28.3064555206832	0	0
0.05	42.10347662258504	-89.97842130055471	-47.90812992486138	0	0.9399999999999999	0	0.3626759661410535	0.07902169831124566	-0.008780274076707981	0.4141828233005033	0.007228853971799669	-0.1643002400756871	0	0	0.3870208922996223	-0.1177731285437943	-0.1402486644069263	0.5307246638005885	0.009262892804860231	0.1526119947906606	0	0	0	0	0	0	-2.596057934671932	0	31.15633721788157	28.39544674899544	0	0	0	-2.596057934671932	0	31.15633721788157	28.39544674899544	0	0
0.07500000000000001	42.1031469612388	-89.95022645613416	-47.90185392450166	0	0.9399999999999999	0	0.4171854771980381	0.09918564990815627	0.01471995656160423	0.3434464415906739	0.005994271210015651	-0.4079887501790824	0	0	0.5025545935839107	-0.2245572054087846	-0.1471912491622716	0.5365871269367586	0.009365212088863192	0.04494620437220234	0	0	0	0	0	0	-2.613956778183073	0	31.33449494793267	28.5360576196598	0	0	0	-2.613956778183073	0	31.33449494793267	28.5360576196598	0	0
0.1	42.09998386537852	-89.97392516035387	-47.89885980904872	0	0.9399999999999999	0	0.4416555000707095	0.1617976153934653	0.03990171498990329	0.279487490000078	0.004877976918636088	-0.6617548437508082	0	0	0.5789705489973929	-0.3391211638949977	-0.1651576103804361	0.5422532812217075	0.009464105137061534	-0.1045837921406539	0	0	0	0	0	0	-2.621129255279069	0	31.40654210208961	28.59307269119224	0	0	0	-2.621129255279069	0	31.40654210208961	28.59307269119224	0	0
0.125	42.09973410505154	-89.98635484849255	-47.89827021215262	0	0.9399999999999999	0	0.4870344901826548	0.2150686884602969	0.07433671719922726	0.2384237447091192	0.004161279360108541	-0.892808957459145	0	0	0.6447997294453589	-0.4516567084299261	-0.1795975396130067	0.5239494522834958	0.009144643056367923	-0.2476183334260889	0	0	0	0	0	0	-2.625889029716974	0	31.45472468232988	28.63130258802973	0	0	0	-2.625889029716974	0	31.45472468232988	28.63130258802973	0	0
0.15	42.11348798350492	-89.996506722354	-47.88208154622282	0	0.9399999999999999	0	0.5048692727130463	0.2471013100438522	0.08886658729256615	0.2088962986854368	0.003645928207290375	-1.089772519558465	0	0	0.7571696403324693	-0.5619398438486994	-0.2084971029445439	0.5247906914622853	0.009159325449834574	-0.3891349887475443	0	0	0	0	0	0	-2.642701046882563	0	31.62520411875919	28.76658434083556	0	0	0	-2.642701046882563	0	31.62520411875919	28.76658434083556	0	0
0.175	42.11721815570755	-89.99038623034524	-47.88649198948151	0	0.9399999999999999	0	0.5677272078843616	0.2704406504767888	0.1260191950202853	0.1814820165531173	0.003167458722010748	-1.314588725108945	0	0	0.8248467633760402	-0.6643950149555096	-0.2304492484408688	0.5244712572642045	0.009153750271334596	-0.4751367895861775	0	0	0	0	0	0	-2.650970410668732	0	31.70930340944803	28.8333797447762	0	0	0	-2.650970410668732	0	31.70930340944803	28.8333797447762	0	0
0.2	42.11663582361086	-89.9876254966	-47.89133778430808	0	0.9399999999999999	0	0.6223836878120449	0.3128772817932001	0.1595757547814079	0.1599404154906317	0.002791486857319266	-1.518727080631564	0	0	0.9136303350641976	-0.7560278025706906	-0.24185499632454	0.5238859862229756	0.009143535364648575	-0.5940663888974979	0	0	0	0	0	0	-2.665468370164557	0	31.85481989787516	28.94835544171095	0	0	0	-2.665468370164557	0	31.85481989787516	28.94835544171095	0	0
0.225	42.10704050113112	-89.99426897233511	-47.88855789711254	0	0.9399999999999999	0	0.6687778440076791	0.3571359117002013	0.1709955418055319	0.1452094191555286	0.002534382469172499	-1.698376350350988	0	0	0.9995148156590689	-0.8660114883140038	-0.2419557670445883	0.5107915658060185	0.008914994614732306	-0.7343809013442459	0	0	0	0	0	0	-2.680547329688351	0	32.00572978835782	29.06741304240733	0	0	0	-2.680547329688351	0	32.00572978835782	29.06741304240733	0	0
0.25	42.11071621511133	-89.97908705328052	-47.89848509635782	0	0.9399999999999999	0	0.7556671020878751	0.3666717616936621	0.2076629123342071	0.131357972632917	0.002292629121189006	-1.918755520517841	0	0	1.066070148837626	-0.942961084605875	-0.2637164752946349	0.5081902516854386	0.008869593118449566	-0.816300165208753	0	0	0	0	0	0	-2.692909057533608	0	32.12902467706911	29.16452009475778	0	0	0	-2.692909057533608	0	32.12902467706911	29.16452009475778	0	0
0.275	42.10280124407863	-89.98699922348358	-47.89742935050089	0	0.9399999999999999	0	0.8105109052031405	0.3963526515052803	0.2203590129931841	0.120739207046971	0.002107296699216783	-2.113801090688069	0	0	1.141750609636045	-1.02673408364176	-0.2694897608420048	0.5052722377177741	0.008818664167094637	-0.9407642390560589	0	0	0	0	0	0	-2.704049061047565	0	32.23999665545176	29.2518584359726	0	0	0	-2.704049061047565	0	32.23999665545176	29.2518584359726	0	0
0.3	42.10030729049509	-89.98701780218099	-47.90077095894599	0	0.9399999999999999	0	0.8751419152557705	0.4081952233010488	0.2435185562914772	0.1106958619016259	0.001932007258516324	-2.317073489965391	0	0	1.206044817454397	-1.101012270643495	-0.2789369117335865	0.4972963220190635	0.008679458177290633	-1.041999256587686	0	0	0	0	0	0	-2.714043750050673	0	32.33946386282877	29.33009783915961	0	0	0	-2.714043750050673	0	32.33946386282877	29.33009783915961	0	0
0.325	42.09795223800411	-89.98742399224356	-47.90331440734615	0	0.9399999999999999	0	0.9369042361143124	0.4168158831290605	0.2645294112459204	0.1019210988515449	0.001778858752210069	-2.51513997323636	0	0	1.262506412213622	-1.169909762475422	-0.2874105737454385	0.487447902361196	0.008507570828142711	-1.13778574767863	0	0	0	0	0	0	-2.723464193326158	0	32.4330841337968	29.40368232549183	0	0	0	-2.723464193326158	0	32.4330841337968	29.40368232549183	0	0
0.35	42.09564883979817	-89.98791996884154	-47.90555504236664	0	0.9399999999999999	0	1.003483347612552	0.426347024787634	0.2850116231083196	0.09443233438874434	0.001648155155427856	-2.71355121066584	0	0	1.315537729402552	-1.231620394329544	-0.298090509821661	0.4773780080973359	0.008331818017910662	-1.236352805123887	0	0	0	0	0	0	-2.732582317419199	0	32.52346839437681	29.47463335697681	0	0	0	-2.732582317419199	0	32.52346839437681	29.47463335697681	0	0
0.3750000000000001	42.09983267174133	-89.97433283796768	-47.91433524380756	0	0.9399999999999999	0	1.09216331450694	0.4178754835666195	0.3221146853708672	0.0874476221644207	0.001526248929809111	-2.93318708826087	0	0	1.366405511988683	-1.277750361441767	-0.3260633535044446	0.4867619934958291	0.008495599460073441	-1.264362951434614	0	0	0	0	0	0	-2.740644093124209	0	32.60304653410304	29.5369767037154	0	0	0	-2.740644093124209	0	32.60304653410304	29.5369767037154	0	0
0.4000000000000001	42.09736163767316	-89.97614416441586	-47.91685655480391	0	0.9399999999999999	0	1.163497356279797	0.4206206888444845	0.3438116394111588	0.08193356908537851	0.001430010548450094	-3.135032876951465	0	0	1.421598562822915	-1.328924948485593	-0.3511537036385332	0.479299376440039	0.008365352221634419	-1.373600732766105	0	0	0	0	0	0	-2.748792879681694	0	32.68330435149828	29.59978270045744	0	0	0	-2.748792879681694	0	32.68330435149828	29.59978270045744	0	0
